<svg height="512pt" viewBox="-35 0 512 512.001" width="512pt" xmlns="http://www.w3.org/2000/svg"><path d="m221.453125 115.132812c-89.796875 0-162.59375 72.792969-162.59375 162.59375v156.765626h325.1875c0-17.324219 0-138.941407 0-156.765626 0-89.800781-72.792969-162.59375-162.59375-162.59375zm0 0" fill="#ff6d3a"/><path d="m192.023438 117.796875c75.75 13.847656 133.164062 80.179687 133.164062 159.929687v156.765626h58.859375c0-17.324219 0-138.941407 0-156.765626 0-101.6875-92.179687-178.1875-192.023437-159.929687zm0 0" fill="#db5e32"/><path d="m308.289062 434.492188h-173.667968v-55.992188c0-46.324219 37.550781-83.875 83.871094-83.875h5.921874c46.320313 0 83.871094 37.550781 83.871094 83.875v55.992188zm0 0" fill="#ff4c4c"/><path d="m197.121094 298.105469c36.109375 10.523437 62.503906 43.847656 62.503906 83.355469v53.03125h48.664062v-53.03125c0-58.199219-55.960937-99.445313-111.167968-83.355469zm0 0" fill="#d43f3f"/><path d="m427.917969 434.492188h-412.925781c-8.28125 0-14.992188 6.710937-14.992188 14.988281v47.53125c0 8.277343 6.710938 14.988281 14.992188 14.988281h412.925781c8.277343 0 14.988281-6.710938 14.988281-14.988281v-47.53125c0-8.277344-6.710938-14.988281-14.988281-14.988281zm0 0" fill="#423e38"/><path d="m427.917969 434.492188h-72.078125c8.277344 0 14.988281 6.710937 14.988281 14.988281v47.53125c0 8.277343-6.710937 14.988281-14.988281 14.988281h72.078125c8.277343 0 14.988281-6.710938 14.988281-14.988281v-47.53125c0-8.277344-6.710938-14.988281-14.988281-14.988281zm0 0" fill="#302e29"/><g fill="#ff4c4c"><path d="m221.453125 79.636719c4.289063 0 7.765625-3.476563 7.765625-7.765625v-64.105469c0-4.289063-3.476562-7.765625-7.765625-7.765625s-7.765625 3.476562-7.765625 7.765625v64.105469c0 4.289062 3.476562 7.765625 7.765625 7.765625zm0 0"/><path d="m386.289062 147.910156c5.832032 0 3.960938-1.921875 50.820313-47.601562 3.03125-3.035156 3.03125-7.949219 0-10.984375-3.035156-3.03125-7.953125-3.03125-10.984375 0l-45.328125 45.332031c-3.03125 3.03125-3.03125 7.949219 0 10.980469 1.515625 1.515625 3.503906 2.273437 5.492187 2.273437zm0 0"/><path d="m56.621094 147.910156c6.859375 0 10.398437-8.347656 5.492187-13.253906l-45.328125-45.332031c-3.035156-3.027344-7.949218-3.03125-10.984375 0-3.03125 3.035156-3.03125 7.953125 0 10.984375 46.84375 45.664062 44.988281 47.601562 50.820313 47.601562zm0 0"/></g></svg>